<svg width="467" height="157" viewBox="0 0 467 157" fill="none" xmlns="http://www.w3.org/2000/svg">
<circle cx="66" cy="71" r="37" stroke="#0A0A0A" stroke-width="26"/>
<rect x="124" y="21" width="26" height="100" rx="13" fill="#0A0A0A"/>
<rect x="120" y="32.5007" width="26" height="112.14" rx="13" transform="rotate(-36.5968 120 32.5007)" fill="#0A0A0A"/>
<rect x="180" y="21" width="26" height="100" rx="13" fill="#0A0A0A"/>
<rect x="214" y="58" width="66" height="26" rx="13" fill="#0A0A0A"/>
<circle cx="334" cy="116" r="8" fill="#7CCBCD"/>
<circle cx="374" cy="121" r="10" fill="#F3B9A9"/>
<circle cx="424" cy="126" r="14" fill="#FFC629"/>
<path d="M296.043 89.5033C287.67 104.006 270.599 111.077 254.424 106.743C238.248 102.408 227 87.7498 227 71.0033C227 54.2569 238.248 39.5984 254.424 35.2641C270.599 30.9298 287.67 38.0005 296.043 52.5033" stroke="#0A0A0A" stroke-width="26" stroke-linecap="round"/>
</svg>
